<?xml version="1.0" encoding="UTF-8" standalone="no"?>
<svg
   id="Layer_1"
   data-name="Layer 1"
   viewBox="0 0 744 374"
   version="1.1"
   sodipodi:docname="360insights-color.svg"
   inkscape:version="1.2.2 (b0a8486541, 2022-12-01)"
   xmlns:inkscape="http://www.inkscape.org/namespaces/inkscape"
   xmlns:sodipodi="http://sodipodi.sourceforge.net/DTD/sodipodi-0.dtd"
   xmlns="http://www.w3.org/2000/svg"
   xmlns:svg="http://www.w3.org/2000/svg">
  <sodipodi:namedview
     id="namedview1955"
     pagecolor="#ffffff"
     bordercolor="#666666"
     borderopacity="1.0"
     inkscape:showpageshadow="2"
     inkscape:pageopacity="0.0"
     inkscape:pagecheckerboard="0"
     inkscape:deskcolor="#d1d1d1"
     showgrid="false"
     showguides="true"
     inkscape:zoom="1.8239247"
     inkscape:cx="373.6448"
     inkscape:cy="186.95947"
     inkscape:window-width="1499"
     inkscape:window-height="991"
     inkscape:window-x="26"
     inkscape:window-y="23"
     inkscape:window-maximized="0"
     inkscape:current-layer="Layer_1">
    <sodipodi:guide
       position="332.25055,296.69418"
       orientation="1,0"
       id="guide3046"
       inkscape:locked="false" />
    <sodipodi:guide
       position="484.66912,235.8364"
       orientation="0,-1"
       id="guide3048"
       inkscape:locked="false" />
  </sodipodi:namedview>
  <defs
     id="defs1916">
    <style
       id="style1914">.cls-1{fill:#153634;}.cls-2{fill:#efc329;}.cls-3{fill:#de6e26;}.cls-4{fill:#4dacb6;}.cls-5{fill:#bc2c26;}</style>
  </defs>
  <circle
     class="cls-2"
     cx="93.29"
     cy="296.49"
     r="37.4"
     id="circle1934" />
  <circle
     class="cls-3"
     cx="94.81"
     cy="72.36"
     r="37.4"
     id="circle1936" />
  <circle
     class="cls-2"
     cx="205.54"
     cy="45.16"
     r="26.95"
     id="circle1938" />
  <circle
     class="cls-3"
     cx="205.54"
     cy="324.05"
     r="26.95"
     id="circle1940" />
  <circle
     class="cls-4"
     cx="58.51"
     cy="184.61"
     r="26.95"
     id="circle1942" />
  <circle
     class="cls-5"
     cx="300.36"
     cy="279.68"
     r="16.67"
     id="circle1944" />
  <path
     class="cls-1"
     d="M207.42,184.43a10.92,10.92,0,0,0-6.34,1.76,11.18,11.18,0,0,0-3.79,4.3v5.71q0,15.63,10.81,15.62a8.79,8.79,0,0,0,7.28-3.9,15.93,15.93,0,0,0,2.91-9.79,15.64,15.64,0,0,0-3-9.88A9.52,9.52,0,0,0,207.42,184.43Z"
     id="path1946" />
  <path
     class="cls-1"
     d="M274.15,156.59a7.57,7.57,0,0,0-7.16,4.07q-2.24,4.08-2.41,12.34v21.05q0,9.22,2.33,13.5a7.76,7.76,0,0,0,7.35,4.27,7.67,7.67,0,0,0,7.19-4.16q2.32-4.16,2.38-13V174.24q0-8.88-2.32-13.27A7.76,7.76,0,0,0,274.15,156.59Z"
     id="path1948" />
  <path
     class="cls-1"
     d="M137.87,176.23q10.69,0,10.69-10.47A9.1,9.1,0,0,0,146,159.1a9.7,9.7,0,0,0-7.19-2.57,10.32,10.32,0,0,0-6.59,2.21,6.73,6.73,0,0,0-2.81,5.49H113.11a94.86,94.86,0,0,0-2.2,20.36,96,96,0,0,0,1.69,17.9h15.65a8.58,8.58,0,0,0,3.05,6.56,10.79,10.79,0,0,0,7.53,2.77,11.3,11.3,0,0,0,8-2.8,9.35,9.35,0,0,0,3-7.16q0-6.23-3.12-8.83t-8.6-2.6h-9.28v-14.2Z"
     id="path1950" />
  <path
     class="cls-1"
     d="M274.26,226.54q-13.75,0-21.28-9.11t-7.52-25.7v-15q0-16.69,7.5-25.75t21.19-9.06q12,0,19.26,7a94.77,94.77,0,0,0-175.27-.64,27,27,0,0,1,5.89-3.56,34.43,34.43,0,0,1,14.12-2.86q13.75,0,21.62,6.29t7.87,17.26a17.38,17.38,0,0,1-3.26,10,23.11,23.11,0,0,1-9.48,7.67,22.15,22.15,0,0,1,10.3,7.22,19,19,0,0,1,3.74,12,21.27,21.27,0,0,1-8.49,17.66q-8.49,6.62-22.3,6.62a36.52,36.52,0,0,1-15-3.09,27.21,27.21,0,0,1-5.17-3,94.77,94.77,0,0,0,175.93-1.32Q286.58,226.53,274.26,226.54Zm-40.55-14a26.37,26.37,0,0,1-10.36,10.27,29.74,29.74,0,0,1-14.74,3.71,30.78,30.78,0,0,1-15.68-4,27.48,27.48,0,0,1-10.75-11.4,37.62,37.62,0,0,1-4-17.1v-7.64a47.56,47.56,0,0,1,5.46-22.89,39.63,39.63,0,0,1,15.59-15.93,44.61,44.61,0,0,1,22.47-5.78h2.89v15h-.85q-10.69,0-17.57,5.13a21.55,21.55,0,0,0-8.46,14.23A22.27,22.27,0,0,1,214,169.83q10.71,0,17,7.81t6.34,20.49A28.88,28.88,0,0,1,233.71,212.56Z"
     id="path1952" />
  <g
     fill="#153634"
     fill-opacity="1"
     id="g80"
     transform="matrix(4.341102,0,0,4.341102,-445.11027,-634.46458)">
    <g
       transform="translate(177.53204,194.72286)"
       id="g36">
      <g
         id="g34">
        <path
           d="m 14.03125,-2.15625 c -0.554688,0.804688 -1.328125,1.402344 -2.328125,1.796875 C 10.710938,0.0234375 9.550781,0.21875 8.21875,0.21875 c -1.335938,0 -2.523438,-0.3125 -3.5625,-0.9375 C 3.625,-1.34375 2.820312,-2.234375 2.25,-3.390625 1.6875,-4.554688 1.394531,-5.898438 1.375,-7.421875 v -1.4375 c 0,-2.46875 0.578125,-4.382813 1.734375,-5.75 1.15625,-1.363281 2.78125,-2.046875 4.875,-2.046875 1.707031,0 3.082031,0.4375 4.125,1.3125 1.050781,0.875 1.691406,2.121094 1.921875,3.734375 H 11.875 C 11.46875,-13.785156 10.171875,-14.875 7.984375,-14.875 c -1.449219,0 -2.546875,0.511719 -3.296875,1.53125 -0.75,1.023438 -1.132812,2.496094 -1.140625,4.421875 v 1.34375 c 0,1.84375 0.421875,3.3125 1.265625,4.40625 0.84375,1.085937 1.984375,1.625 3.421875,1.625 0.8125,0 1.519531,-0.085937 2.125,-0.265625 C 10.972656,-2 11.476562,-2.304688 11.875,-2.734375 v -3.6875 H 8.078125 V -8.1875 h 5.953125 z m 0,0"
           id="path32" />
      </g>
    </g>
    <g
       transform="translate(193.27564,194.72286)"
       id="g42">
      <g
         id="g40">
        <path
           d="m 7.484375,-10.34375 c -0.324219,-0.05078 -0.667969,-0.07813 -1.03125,-0.07813 -1.367187,0 -2.292969,0.585937 -2.78125,1.75 V 0 h -2.09375 v -12.203125 h 2.03125 l 0.03125,1.40625 c 0.6875,-1.09375 1.660156,-1.640625 2.921875,-1.640625 0.40625,0 0.710938,0.05469 0.921875,0.15625 z m 0,0"
           id="path38" />
      </g>
    </g>
    <g
       transform="translate(201.09665,194.72286)"
       id="g48">
      <g
         id="g46">
        <path
           d="M 9.125,0 C 9,-0.238281 8.898438,-0.664062 8.828125,-1.28125 c -0.96875,1 -2.132813,1.5 -3.484375,1.5 -1.199219,0 -2.183594,-0.335938 -2.953125,-1.015625 -0.773437,-0.675781 -1.15625,-1.539063 -1.15625,-2.59375 0,-1.269531 0.476563,-2.253906 1.4375,-2.953125 0.96875,-0.707031 2.332031,-1.0625 4.09375,-1.0625 h 2.03125 v -0.953125 c 0,-0.726563 -0.21875,-1.304687 -0.65625,-1.734375 -0.4375,-0.4375 -1.085937,-0.65625 -1.9375,-0.65625 -0.742187,0 -1.367187,0.1875 -1.875,0.5625 -0.5,0.375 -0.75,0.828125 -0.75,1.359375 h -2.09375 c 0,-0.601563 0.210937,-1.1875 0.640625,-1.75 0.4375,-0.570313 1.023438,-1.023437 1.765625,-1.359375 0.738281,-0.332031 1.550781,-0.5 2.4375,-0.5 1.40625,0 2.503906,0.355469 3.296875,1.0625 0.800781,0.699219 1.21875,1.667969 1.25,2.90625 v 5.609375 c 0,1.125 0.144531,2.015625 0.4375,2.671875 V 0 Z M 5.65625,-1.59375 c 0.65625,0 1.273438,-0.164062 1.859375,-0.5 0.582031,-0.34375 1.007813,-0.785156 1.28125,-1.328125 v -2.5 H 7.15625 c -2.5625,0 -3.84375,0.75 -3.84375,2.25 0,0.648437 0.21875,1.15625 0.65625,1.53125 0.4375,0.367187 1,0.546875 1.6875,0.546875 z m 0,0"
           id="path44" />
      </g>
    </g>
    <g
       transform="translate(213.66896,194.72286)"
       id="g54">
      <g
         id="g52">
        <path
           d="m 3.546875,-12.203125 0.078125,1.53125 c 0.925781,-1.175781 2.144531,-1.765625 3.65625,-1.765625 2.582031,0 3.882812,1.460938 3.90625,4.375 V 0 H 9.09375 V -8.078125 C 9.082031,-8.960938 8.878906,-9.613281 8.484375,-10.03125 c -0.386719,-0.414062 -1,-0.625 -1.84375,-0.625 -0.679687,0 -1.273437,0.183594 -1.78125,0.546875 -0.511719,0.355469 -0.90625,0.824219 -1.1875,1.40625 V 0 h -2.09375 v -12.203125 z m 0,0"
           id="path50" />
      </g>
    </g>
    <g
       transform="translate(226.42185,194.72286)"
       id="g60">
      <g
         id="g58">
        <path
           d="m 4.40625,-15.171875 v 2.96875 H 6.6875 v 1.609375 H 4.40625 v 7.5625 c 0,0.492188 0.097656,0.859375 0.296875,1.109375 C 4.910156,-1.679688 5.257812,-1.5625 5.75,-1.5625 c 0.238281,0 0.570312,-0.039062 1,-0.125 V 0 C 6.195312,0.144531 5.660156,0.21875 5.140625,0.21875 4.210938,0.21875 3.507812,-0.0625 3.03125,-0.625 2.5625,-1.1875 2.328125,-1.988281 2.328125,-3.03125 v -7.5625 H 0.09375 v -1.609375 h 2.234375 v -2.96875 z m 0,0"
           id="path56" />
      </g>
    </g>
    <g
       transform="translate(233.972,194.72286)"
       id="g66">
      <g
         id="g64">
        <path
           d="m 7.34375,-2.875 4.703125,-13.546875 H 14.40625 L 8.3125,0 H 6.390625 L 0.3125,-16.421875 h 2.359375 z m 0,0"
           id="path62" />
      </g>
    </g>
    <g
       transform="translate(248.67732,194.72286)"
       id="g72">
      <g
         id="g70">
        <path
           d="M 3.84375,0 H 1.765625 V -12.203125 H 3.84375 Z m -2.25,-15.453125 c 0,-0.332031 0.101562,-0.613281 0.3125,-0.84375 0.207031,-0.238281 0.515625,-0.359375 0.921875,-0.359375 0.40625,0 0.710937,0.121094 0.921875,0.359375 0.207031,0.230469 0.3125,0.515625 0.3125,0.859375 0,0.335938 -0.105469,0.617188 -0.3125,0.84375 -0.210938,0.21875 -0.515625,0.328125 -0.921875,0.328125 -0.40625,0 -0.714844,-0.109375 -0.921875,-0.328125 -0.210938,-0.226562 -0.3125,-0.515625 -0.3125,-0.859375 z m 0,0"
           id="path68" />
      </g>
    </g>
    <g
       transform="translate(254.28633,194.72286)"
       id="g78">
      <g
         id="g76">
        <path
           d="m 8.6875,-3.234375 c 0,-0.5625 -0.214844,-1 -0.640625,-1.3125 -0.429687,-0.3125 -1.167969,-0.582031 -2.21875,-0.8125 -1.054687,-0.226563 -1.890625,-0.5 -2.515625,-0.8125 -0.625,-0.3125 -1.089844,-0.6875 -1.390625,-1.125 -0.292969,-0.4375 -0.4375,-0.957031 -0.4375,-1.5625 0,-1 0.421875,-1.84375 1.265625,-2.53125 0.851562,-0.695313 1.9375,-1.046875 3.25,-1.046875 1.382812,0 2.503906,0.359375 3.359375,1.078125 0.863281,0.710937 1.296875,1.621094 1.296875,2.734375 H 8.5625 c 0,-0.570312 -0.246094,-1.0625 -0.734375,-1.46875 -0.480469,-0.414062 -1.089844,-0.625 -1.828125,-0.625 -0.761719,0 -1.355469,0.167969 -1.78125,0.5 -0.429688,0.324219 -0.640625,0.757812 -0.640625,1.296875 0,0.5 0.195313,0.882813 0.59375,1.140625 0.394531,0.25 1.113281,0.496094 2.15625,0.734375 1.050781,0.230469 1.898437,0.507813 2.546875,0.828125 0.644531,0.324219 1.125,0.714844 1.4375,1.171875 0.3125,0.460937 0.46875,1.011719 0.46875,1.65625 0,1.09375 -0.4375,1.96875 -1.3125,2.625 -0.875,0.65625 -2.007812,0.984375 -3.390625,0.984375 -0.980469,0 -1.851563,-0.171875 -2.609375,-0.515625 -0.75,-0.34375 -1.339844,-0.820313 -1.765625,-1.4375 -0.417969,-0.625 -0.625,-1.296875 -0.625,-2.015625 H 3.15625 C 3.195312,-3.050781 3.476562,-2.5 4,-2.09375 c 0.519531,0.40625 1.210938,0.609375 2.078125,0.609375 0.78125,0 1.410156,-0.15625 1.890625,-0.46875 0.476562,-0.320313 0.71875,-0.75 0.71875,-1.28125 z m 0,0"
           id="path74" />
      </g>
    </g>
  </g>
</svg>
